/* XPM */
static char *door_side[] = {
/* columns rows colors chars-per-pixel */
"64 64 35 1 ",
"  c #3B6189",
". c #3F6790",
"X c #406792",
"o c #416B95",
"O c #436E9A",
"+ c #45719D",
"@ c #4773A0",
"# c #4976A2",
"$ c #4B7AA6",
"% c #4D7EAA",
"& c #4F81AD",
"* c #5084AF",
"= c #5186B1",
"- c #558BB5",
"; c #578EB8",
": c #588EB9",
"> c #5994BD",
", c #5C97C0",
"< c #5E9AC3",
"1 c #609EC5",
"2 c #61A0C7",
"3 c #63A4CB",
"4 c #66A8CE",
"5 c #67ACD1",
"6 c #69AED3",
"7 c #6BB1D6",
"8 c #6EB5D9",
"9 c #6FBADD",
"0 c #70BBDE",
"q c #72BEE1",
"w c #75C1E3",
"e c #7BC4E4",
"r c #83C6E5",
"t c #87C8E5",
"y c #88C8E5",
/* pixels */
"yyyyyyyyyyyyyyyyyyyyyyyyyyyyyyyyyyyyyyyyyyyyyyyyyyyyyyyyyyyyyyyy",
"yyyyyyyyyyyyyyyyyyyyyyyyyyyyyyyyyyyyyyyyyyyyyyyyyyyyyyyyyyyyyyyy",
"yyyyyyyyyyyyyyyyyyyyyyyyyyyyyyyyyyyyyyyyyyyyyyyyyyyyyyyyyyyyyyyy",
"yyyyyyyyyyyyyyyyyyyyyyyyyyyyyyyyyyyyyyyyyyyyyyyyyyyyyyyyyyyyyyyy",
"yyyyyyyyyyyyyyyyyyyyyyyyyyyyyyyyyyyyyyyyyyyyyyyyyyyyyyyyyyyyyyyy",
"yyyyyyyyyyyyyyyyyyyyyyyyyyyyyyyyyyyyyyyyyyyyyyyyyyyyyyyyyyyyyyyy",
"yyyyyyyyyyyyyyyyyyyyyyyyyyyyyyyyyyyyyyyyyyyyyyyyyyyyyyyyyyyyyyyy",
"tyttyyyyytyyyttyyyyytyytyyyyyytyyyyyyytyyyyyyyyyyyyyyyyyyyyytyyt",
"ttttttyyytttttttttytttyytttttttttyyyyyyyyyyyyttytttttttttttttttt",
"rttttttyttttttyrttttryyytttttttttrttryryryyryrtrtttttttttttttttt",
"rrtrrrrrrrrrrrrrtrrtrrrrtrrrrrtrrrrrrrrrrrrrrrrrrrttttttrrrrrrrr",
"erererererrrrrrrerrerrrererrerrererrrerrrerrrrreteeteeeererrrrre",
"eeeeeeeeeeeeeeeeeeeeeeeeeeeeeeeeeeeeeeeeeeeeeeeeeeeeeeeeeeeeeeee",
"eeeeeeeeeeewweeeeweeeeeweeeewweeeeeeeeeeeeeeeeeweeeeeweeeweeeeee",
"wwwwwwwwwwwwwwwwwwwwwwwwwwwwwwwwwwwwqwewwwwwwwwwwwwwwwwwwewwwwww",
"wwwwwqwwwwwwwwwwwwwwwwwwwwwwwwwwwwwwqwqqwwwwwwwwwwwwwwwwwwwwwwww",
"wqqqqqqqqqqqqqqqqqqqqqqqwq9ww9wqqqqqqqqqqqqqqqqqwqqqqqqqqqwwqqwq",
"qqqwqqqqqqq000000q000q0qq0q99w9q9q0qq00q0q0q0q0qqqqqqqqqq99qqqqq",
"qqqq9q99q0q0qq00q00000000q099q9q000000q0900000q099q9q0qqqqqqqqqq",
"q9999q99008q0800000999008009999999009900909090809999009q999q9qqq",
"00009990888q8808889888089898888889898898888089q8999989q800009q99",
"900099888888888888888888778888888888888888888888888898880800999q",
"8888888887888877887778777878877788687787787877778878888888988999",
"8787877786686876666766677657667766667666676677777777778788788888",
"8867676666665565556566555565564455656655665666655665766767878888",
"6666666665544544355334435353434443353444355335564555566566666777",
"5655545333335333333333333332333333333323333333334344445455556677",
"4343333333332232221122222222222211211222223222323323334334444456",
"3333321211111<<<1<<<<<<<<<1<<<<<<<<<<<<<<<<<<<<<<111222333334444",
"1311111<<1,<<,<,,<,<,<,>,,>><>>>><>><,,,,,,,<<<<<<<<<<<111322333",
"11,,,<,,,>,>,,>>>>>>>>>>>>>>>>>>>>>>>>>>>>>,,>,>,,,,,,<,<<<11133",
"1,,,,>>>>>>:::;:::;:;;;;;;-;;;;;;:;;;;;;;;;;:;::;>:>>>,,,,<<<<11",
",,;,;,;,;;;;-;;;,%=,=,,%=,,=*,,%-----------------;;;;,;;,,,,,,,<",
";;;;;;=-----=;==%,====%,=%%,,*%,---=-----------------;-;--,;;>,,",
";-;;===;-=-=====*=,%*=====%%$%,%=============-*------------;;;;,",
"---;==========*=**%*=%%%%%,%=%%*&*&****&=&=***=*&*======----;-;;",
"====*=*==*****&*%**%%%%,*%,$%%**&&%%&&&&%&&&&&&&&*&***======---;",
"==**&&&%&&&&%%%%%%%%%%%%%%%$%%%%%%%%%%%&%%%&&%&&%&&&&&&&****====",
"&&&$%%%&&$$&%%%%%%%%%%%$%%%%%%%%%%%%%%%%%%%$%%&%%%%%%&$%&&&&&&==",
"$&$$$%$$$$$$$$$$$$$%$$$$$$$$$$$$$%$$$$$$$$$$$$$$$$$$$$$%&$$%$&$&",
"$$$@$@@$@$@@$@@$@@@@$@@@@@@@$@@@@###@##@#@##@$@#@$$$$$@$@@$@$$$$",
"@@@@@@@@@+@@@@++@@+@@@@@+@@@@@+@@+@@@@@@@@@@@$@@.+@@.$.@+@@@.$@+",
"@@++@+@+++++++++@++++@@@@+@O@+++++O++++++++++.@$@@@.$.$+.$.+++.@",
"++O+OO++O+O+++O++++OOO++O@OO++O+O++O++.+O+O++@..@.@@.@.$@.@+.@@.",
"+OO++++OOOOOO+OOOOOOOOOOOOOOOOOOOO++OO++OO+++..@.@.+.@..@..@.@..",
"OO+O.+OOOOOOOOOOOO+OOOOOOOOOOOOOOO.OOO.++..+.++@+.+.@..@.@..+..@",
"OO+OO+OOOOOOOOOOOOOOOOOOOOOOOOOOOOOO.OO..+......+..+@....@@....@",
"OO.OO+.OOOOOOOOOOO.OOOOOoOooOoooooooO..+O..++.+..+....@@....@@..",
"..OOXooooooooooo   .oooooo.oXXoX.ooo.o...oo.    ............o.o.",
".O..XXXXXXXXXXXX   ...o......... o o... ....    ................",
"....XX  XX XX X     .. ... .     ..  .   .      . ..    . .. .. ",
" .       X   X                                   . .    .       ",
"                                                                ",
"                                                                ",
"                                                                ",
"                                                                ",
"                                                                ",
"                                                                ",
"                                                                ",
"                                                                ",
"                                                                ",
"                                                                ",
"                                                                ",
"                                                                "
};
