/* XPM */
static char *door[] = {
/* columns rows colors chars-per-pixel */
"64 64 76 1 ",
"  c #C85F5F",
". c #E57C7C",
"X c #EB7979",
"o c #599C6A",
"O c #579770",
"+ c #5FC879",
"@ c #828179",
"# c #9B867F",
"$ c #DCB34B",
"% c #EBD76F",
"& c #3B6189",
"* c #3F6790",
"= c #406793",
"- c #416B96",
"; c #436E9A",
": c #477494",
"> c #45719E",
", c #4673A0",
"< c #4A76A3",
"1 c #4B79A5",
"2 c #4D7EA9",
"3 c #4F81AD",
"4 c #5083AE",
"5 c #5285B1",
"6 c #558BB5",
"7 c #578EB8",
"8 c #588FB9",
"9 c #5994BD",
"0 c #5C97C0",
"q c #5E9AC2",
"w c #609EC5",
"e c #61A0C7",
"r c #63A4CB",
"t c #66A8CE",
"y c #69A9CF",
"u c #67ACD1",
"i c #68AED3",
"p c #73AED2",
"a c #6BB1D6",
"s c #6EB5D9",
"d c #6FBADC",
"f c #74B7DA",
"g c #71BBDE",
"h c #7DBAD9",
"j c #72BEE1",
"k c #75C1E3",
"l c #7BC4E4",
"z c #8B8980",
"x c #929087",
"c c #96948B",
"v c #9A988F",
"b c #A39F95",
"n c #AB9D94",
"m c #A3A197",
"M c #DFC481",
"N c #88AECC",
"B c #8AB0CD",
"V c #8CB5D1",
"C c #8FB9D5",
"Z c #84B9D8",
"A c #91BBD7",
"S c #92BED9",
"D c #94C4DE",
"F c #83C6E5",
"G c #8BC5E2",
"H c #86C8E5",
"J c #88C8E5",
"K c #8DCBE8",
"L c #96C7E1",
"P c #96C9E2",
"I c #99CCE5",
"U c #94CEE8",
"Y c #9DD2EA",
"T c #A3D6EC",
"R c #A9D7ED",
"E c #ACD9ED",
/* pixels */
"JJJJJJJJHJJJbmmmKREEEEEEEEEEEEEEEEmmmTKJHJJJHJJJJJJJJJJJJJJJJJJJ",
"JJJHHJJJmmmmmmmmmmbmmmmmmEEmmmmmmmmmmmbJHKJJJJJmmmmmJJJJJJJJJJJJ",
"JJJJHHJmmmmmmmmmmmmmmmmmmmmmmmmmmmmmmmzzKmmmmmmmmmmmmJJJJHJJJJJJ",
"JHJJJJmmmmmmmmmmmmmmmmmmmmmmmmmmmmmmmzzz@mmmmmmmmmmmmmmm@KHJJJJJ",
"JJJJJbmmmmmmmmmmmmmmmmmmmmmmmmmmmmmmzzzmmmmmmmmmmmmmmmmmx@HHJJJJ",
"HJJJmbmmmmmmmmmmmmmmmmmmmmmmmmmmmmzzzzmmmmmmmmmmmmmmmmmmmx@KJJJJ",
"JJJJmmmmmmmmmmmmmmmmmmmmmmmmm@@@@@@@zzmmmmmmmmmmmmmmmmmmm@@KJGHH",
"HJJJmmmmmmmmmmmmmmmmmmmmmmm@@@@@@@@@@@mmmmmmmmmmmmmmmmmmmm#@JHHH",
"JJHHJmmmmmmmmmmmmmmmmmmmm@@@@RTHHKRY3#@@nbbbmmmmmmmmmmmmmm@xKHHH",
"FJJHJJmmmmmmmmmmmmmmmmmm@@@ERYHHUEUHFK@@@nmbmmmmmmmmmmmmmmmxHHHH",
"FFHFFFHmmmmmmmmmmmmmmmm@@RRRUFFYRKHHHHFY@@mmmmmmmmmmmmmmmmm@@HHH",
"FllFlllFzmmmmmmmmmmmmm@@RRTKFlYTFFlFllTTE@@mmmmmmmmmmmmmmmmxxlll",
"llllllllzzmmmmmmbmmm#@OTYTlllYYlllllHTTTTT@@mmmmmmmmmmmmmmmm#lll",
"llkllllkzzmmmmmmbbmz@zETUllHTUlkljjFTTTTTTT@@mmmmmmmmmmmmmmm@lll",
"kkkkkkkkzzzzmmmmbzzz@@THkkHTJkkklkKTYYTYYTY@@mmmmmmmmmmmmmmmxklk",
"kkkkkkkkjzzzzzzzzzz@@YFkkKYlkkjkjKTYYTYYYYYT@@mmmmmmmmmmmmmcOkkk",
"kkjjjjjjmmzzzzzzzzz@@FjjUUjjjjgkPYYYYYYYYYYY@@mmmmmmmmmmmmmzzkkj",
"jjjjjjdmmmmmmmmmmm@@jjjUKjjjjdlUYYYYYYYYYYYYY@@mmmmmmmmmmmmzkkjj",
"jjdjjdmmXXmmmmmmmm@@gjYGggdjdlYYYIYYIYYYYIYIY@@bmmmmmmmmmmzzjjjj",
"jjjdf...XXmmmmmmmm@@GIFgdgffHIIIYIIYIYIIIYUYY@@bmmmmmmmmmmzzjdjj",
"djdgX XX Xmmmmmmmm@@IffdssdGIIIIIIIIIIIIIIIII@@nmmmmmmmmmmzzdjdd",
"dgdfXX  XXXmmmmmmm@@sssssfGIIIIIIIIIIIIIIIIII@@nmmmmmmmmmbzzdddj",
"ssdsXX   XXXmmmmmm@@asaahLLILILIPIPPILIPIPPIL@Ozxmmmmmmmmmzddddd",
"ssapX X    XXmmmmm@@iiihLLLLLLLLLLPPLLLLLPPPD@#z#@mmmmmmmzzsasss",
"asaX ..X XXXXmmmmmm@@ihLLLDLLDDDLLLLLLDDLLDL@@mzzzmmmmmmzzzassss",
"iiiXXXnX Xmmmmmmmmm@@ZLSSLDSDDDDDSDLSDDDLLSD@@mmzzzzmmmmzziiaaaa",
"iiuymmmXXXmmmmmmmmmm@@SSSSSSSSSSSSSSSSASSSS@@bmmzzzzzzzzzzzuuuaa",
"rurrrmmmXmmmmmmmmmmm@@SSSASAASSAAASAAASASSS@@bmmbzzzzzzzzzzuuuuu",
"trrrrbmmmmmmMMMmmmmmm@@CCCAVAVCCCCCCACCACC@@mmmmzzzmmmmmmmzrrrri",
"rwwwwmmmmmmMM%MMmmmmmm@@VVVVVVVCCVVVCVCVV@@zzzzzzzmmmmmmmmmrrrrr",
"wwq00mmmmmmM%%$Mmmmmmmm@@VVVVVVVVBVVBVVV@@zzzzzcvbmmmmmmmmzqwrrr",
"00000zmmmmmM%%$Mmmmmmmmm@@@BVNNNBBBBBN@@@mmmmmmmmmmmmmmmmmzzqqww",
"09999zmmmmm$%%$$mmmmmmmmm@@@@NNBNNBB@@@@mmmmmmmmmmmmmmmmmmzzq00q",
"89777zzmmmmm%%$mmmmmmmmmmmm@@@@@@@@@@@bbmmmmmmmmmmmmmmmmmmmz0000",
"766666zzmmmm%%$mmmmmmmmmmmmmm@@@@@@@mmbbmmmmmmXXbmmmmmmmmmmzz080",
"6666555zzzmm%%$mmmmmmmmmmmmmmmmzzzzbmmmmmmmmmm XXmX..mmmmmmzz686",
"65555554zzzz%%$mmmmmmmmmmmmmmmmzzzmmmmmmmmmmmmX XXX Xmmmmmmzz667",
"5353432mzzzz%%$zzzzzzzzzzmmmmzzzzzmmmmmmmmmmmmXX X Xnmmmmmmzz255",
"232222mmmmmm%%$mmmmzzzzzzzzzzzzzzzmmmmmmmmmmmXXXX XXmmmmmmzzz355",
"22++12mmmmmm%%$mmmmmmmmzzzzzzzczzzzmmmmmmmmX X X X Xmmmmmmzzz222",
"1o++<<mmmmmM%%$MmmmmmmmmmmmmmmmmzzzzmmmmmmmmXXXXXXX .mmmzzzz<<<1",
"<o++,,,mmmmM$$$MmmmmmmmmmmmmmmmmmzzzzmmmmmmmmmmX XmX .zzzzzz,,,,",
",oo++,>mmmmMM$MMmmmmmmmmmmmmmmmmzzzzzmmmzzzzzzzXXXbbmxzzzzz,;>,;",
">oO+++;mmmm$MMM$mmmmmmmmmmmmmczzzzzzzzzzzzzzzzzz zzzzzzzzz*,;;;;",
";:o+++++zmmm$$$mmmmmmmmmmmmzzzzzzzzzzzzzzzmmmmmzzzzzzzzzz,*,;;*>",
";;oo++++zzmmmmmmmmmmmmmmmmmzzzzzzmmmmmmmmmmmmmmmnmmmmmmmmm***;**",
";;;ooo+zzzzzzzzzzzzzzzzzzzzzzmmmmmmmmmmmmmmmmmmmmmmmmmmmmmm*>*>*",
";;;;oommzzzzzzzzzzzzzzzzzzzzzmmmmmmmmmmmmmmmmmmmmmmmmmmmmmmx**>*",
"-+--ommmmm#zzmmmmmmmmmmzzzzzmmmmmmmmmmmmmmmmmmmmmmmmmmmmmmzz-===",
"=++*mmmmmmmmmmmmmmmmmmmzzzzmmmmmmmmmmmmmmmmmmmmmmmmmmmmmmmzz=***",
"*o++mmmmmmmmmmmmmmmmmmmmzzvmmmmmmmmmmmmmmmmmmmmmmmmmmmmmmmzz**&*",
"*ooommmmmmmmmmmmmmmmmmmmzzzmmmmmmmmmmmmmmmmmmmmmmmmmmmmmmmzz&&&&",
"&&&Obmmmmmmmmmmmmmmmmmmmzzzmmmmmmmmmmmmmmmmmmmmmmmmmmmmmmbz&&&&&",
"&&&&mmmmmmmmmmmmmmmmmmmmzzmmmmmmmmmmmmmmmmmmmmzzzzmmmmmmzzz&&&&&",
"&&&&mmmmmmmmmmmmmmmmmmmzzzmmmmmmmmmmmmzzzzzzzzzzzzzzmmmmzz@&&&&&",
"&&&&mmmmmmmmmmmmmmmmmmmzzzzmmmmmmmzzzzzzzzzzzzzmmzzzzzzzzz&&&&&&",
"&&&&&@zmmmmmmmmmmmmmmmzzzzzzmmmmmzzzzzzmmmmmmmmmmmzzzzzzzz&&&&&&",
"&&&&&&zzzmmmmzzzzmmmmzzzzzzzzzzzzzzzmmmmmmmmmmmmmmmmmmmmzzz&&&&&",
"&&&&&&zzzzzzzzzzzzzzzzzzzzzzzzzzzzzmmmmmmmmmmmmmmmmmmmmmmzzz&&&&",
"&&&&&mmzzzzzzzzmzzzzzzzmmmmmmmmzzzzmmmmmmmmmmmmmmmmmmmmmmmmz&&&&",
"&&&&&mmmmmmmmmmmmmmmmmmmmmmmmmmzzzzzmmmmmmmmmmmmmmmmmmmmmmmz&&&&",
"&&&&&mmmmmmmmmmmmmmmmmmmmmmmmmmmmzzzmmmmmmmmmmmmmmmmmmmmmmmz@&&&",
"&&&&&mmmmmmmmmmmmmmmmmmmmmmmmmmmmmzzzmmmmmmmmmmmmmmmmmmmmmmzzz&&",
"&&&&&mmmmmmmmmmmmmmmmmmmmmmmmmmmmmzzzmmmmmmmmmmmmmmmmmmmmmmmzz&&"
};
