/* XPM */
static char *sea1[] = {
/* columns rows colors chars-per-pixel */
"64 64 189 2 ",
"   c #38536D",
".  c #38556D",
"X  c #3A556D",
"o  c #39566E",
"O  c #3E586E",
"+  c #34587B",
"@  c #475E6E",
"#  c #50666F",
"$  c #427876",
"%  c #768472",
"&  c #44A36A",
"*  c #D09132",
"=  c #E5DA7C",
"-  c #F0E37D",
";  c #F2E47D",
":  c #F3E57D",
">  c #3F6183",
",  c #446F9B",
"<  c #45719D",
"1  c #46729E",
"2  c #46729F",
"3  c #46739F",
"4  c #4975A1",
"5  c #4975A2",
"6  c #4976A2",
"7  c #4A76A2",
"8  c #4A7AA5",
"9  c #4A7AA6",
"0  c #4B7AA6",
"q  c #4B7BA6",
"w  c #4C7DA9",
"e  c #4D7DA9",
"r  c #4C7DAA",
"t  c #4D7DAA",
"y  c #4D7FAB",
"u  c #4E7FAA",
"i  c #4E7FAB",
"p  c #4E7FAC",
"a  c #CA548B",
"s  c #CB548B",
"d  c #4F80AC",
"f  c #4F81AC",
"g  c #4F81AD",
"h  c #4F82AD",
"j  c #5082AE",
"k  c #5083AE",
"l  c #5084AF",
"z  c #5184AF",
"x  c #5085AF",
"c  c #5185B0",
"v  c #5185B1",
"b  c #5186B1",
"n  c #5286B1",
"m  c #5287B1",
"M  c #5287B2",
"N  c #5388B2",
"B  c #5389B3",
"V  c #5489B3",
"C  c #548AB4",
"Z  c #548AB5",
"A  c #558BB6",
"S  c #568CB6",
"D  c #568DB6",
"F  c #578EB7",
"G  c #578EB8",
"H  c #588EB9",
"J  c #588FB9",
"K  c #5890BA",
"L  c #5891BA",
"P  c #5992BB",
"I  c #5993BC",
"U  c #5994BC",
"Y  c #5994BD",
"T  c #5A95BE",
"R  c #5A96BF",
"E  c #5B96BF",
"W  c #5B97BF",
"Q  c #5DDE8E",
"!  c #5EE38F",
"~  c #5C97C0",
"^  c #5C98C0",
"/  c #5C98C1",
"(  c #5D98C1",
")  c #5D98C2",
"_  c #5D99C2",
"`  c #5E99C2",
"'  c #5E9AC2",
"]  c #5E9AC3",
"[  c #5E9BC3",
"{  c #5E9CC3",
"}  c #5F9CC3",
"|  c #5F9CC4",
" . c #5F9DC4",
".. c #5F9EC5",
"X. c #609DC5",
"o. c #619EC6",
"O. c #609FC6",
"+. c #61A0C7",
"@. c #61A1C8",
"#. c #62A1C8",
"$. c #62A2C8",
"%. c #63A2C8",
"&. c #63A3C9",
"*. c #63A3CA",
"=. c #63A4CA",
"-. c #63A4CB",
";. c #64A4CB",
":. c #64A4CC",
">. c #64A5CC",
",. c #64A5CD",
"<. c #64A6CD",
"1. c #64A7CD",
"2. c #65A7CD",
"3. c #65A7CE",
"4. c #66A8CE",
"5. c #66A8CF",
"6. c #66A9CF",
"7. c #67A9CF",
"8. c #67AAD0",
"9. c #67ACD1",
"0. c #67ADD1",
"q. c #68ACD1",
"w. c #68ADD2",
"e. c #68AED3",
"r. c #69AED3",
"t. c #69AFD3",
"y. c #69AFD4",
"u. c #6AB0D4",
"i. c #6AB0D5",
"p. c #6AB1D5",
"a. c #6BB1D6",
"s. c #6BB1D7",
"d. c #6BB2D7",
"f. c #6CB1D6",
"g. c #6CB1D7",
"h. c #6CB2D7",
"j. c #6CB2D8",
"k. c #6CB3D8",
"l. c #6CB4D9",
"z. c #6DB4D9",
"x. c #6DB5D9",
"c. c #6EB5D9",
"v. c #6EB6DA",
"b. c #6FB6DA",
"n. c #6FB7DB",
"m. c #6FBADC",
"M. c #6FBADD",
"N. c #70B8DB",
"B. c #70B8DC",
"V. c #70B9DC",
"C. c #70BADD",
"Z. c #70BBDD",
"A. c #70BBDE",
"S. c #70BCDE",
"D. c #70BCDF",
"F. c #71BDDF",
"G. c #71BDE0",
"H. c #71BEE0",
"J. c #72BEE1",
"K. c #72BEE2",
"L. c #73BFE2",
"P. c #73BFE3",
"I. c #74C0E2",
"U. c #74C0E3",
"Y. c #74C1E3",
"T. c #75C1E3",
"R. c #76C1E3",
"E. c #77C1E3",
"W. c #76C2E4",
"Q. c #79C1E3",
"!. c #79C3E4",
"~. c #7BC4E4",
"^. c #7BC5E5",
"/. c #7CC4E5",
"(. c #7FC6E5",
"). c #D88DBF",
"_. c #DB8FC1",
"`. c #DC8DC0",
"'. c #D190C2",
"]. c #E28EC1",
"[. c #E38EC1",
"{. c #80C6E5",
"}. c #83C6E5",
"|. c #84C6E5",
" X c #86C7E5",
".X c #87C7E5",
"XX c #86C8E5",
"oX c #87C8E5",
"OX c #88C8E5",
/* pixels */
"OXOXOXOXOXOXOXOXOXOXOXOXOXOXOXOXOXOXOXOXOXOXOXOXOXOXOXOXOXOXOXOXOXOXOXOXOXOXOXOXOXOXOXOXOXOXOXOXOXOXOXOXOXOXOXOXOXOXOXOXOXOXOXOX",
"OXOXOXOXOXOXOXOXOXOXOXOXOXOXOXOXOXOXOXOXOXOXOXOXOXOXOXOXOXOXOXOXOXOXOXOXOXOXOXOXOXOXOXOXOXOXOXOXOXOXOXOXOXOXOXOXOXOXOXOXOXOXOXOX",
"OXOXOXOXOXOXOXOXOXOXOXOXOXOXOXOXOXOXOXOXOXOXOXOXOXOXOXOXOXOXOXOXOXOXOXOXOXOXOXOXOXOXOXOXOXOXOXOXOXOXOXOXOXOXOXOXOXOXOXOXOXOXOXOX",
"OXOXOXOXOXOXOXOXOXOXOXOXOXOXOXOXOXOXOXOXOXOXOXOXOXOXOXOXOXOXOXOXOXOXOXOXOXOXOXOXOXOXOXOXOXOXOXOXOXOXOXOXOXOXOXOXOXOXOXOXOXOXOXOX",
"OXOXOXOXOXOXOXOXOXOXOXOXOXOXOXOXOXOXOXOXOXOXOXOXOXOXOXOXOXOXOXOXOXOXOXOXOXOXOXOXOXOXOXOXOXOXOXOXOXOXOXOXOXOXOXOXOXOXOXOXOXOXOXOX",
"OXOXOXOXOXOXOXOXOXOXOXOXOXOXOXOXOXOXOXOXOXOXOXOXOXOXOXOXOXOXOXOXOXOXOXOXOXOXOXOXOXOXOXOXOXOXOXOXOXOXOXOXOXOXOXOXOXOXOXOXOXOXOXOX",
"OXOXOXOXOXOXOXOXOXOXOXOXOXOXOXOXOXOXOXOXOXOXOXOXOXOXOXOXOXOXOXOXOXOXOXOXOXOXOXOXOXOXOXOXOXOXOXOXOXOXOXOXOXOXOXOXOXOXOXOXOXOXOXOX",
"oXOXoXoXoXOXOXOXOXoXOXOXOXoXoXOXOXOXOXOXoXOXOXoXOXOXoXOXOXOXoXOXOXOXOXOXOXOXoXOXOXOXoXOXOXOXoXOXOXOXOXoXOXOXOXOXOXOXoXOXoXOXOXoX",
"oXoXoXoXoXoXoXoXoXoXOXoXoXoXoXoXoXoXoXoXoXoXOXOXoXoXoXoXoXoXoXoXoXoXoXoXoXoXoXoXoXoXoXoXoXoXoXoXoXoXoXoXoXoXOXOXoXoXoXoXoXoXoXoX",
"|.oX|.oXoXoXoXoXoXoXoX|.oXoX|.oXoXoX|.oX|.oX|.oX|.oXoXoXoXoXoXoXoXoXoXoXoXoXoXoXoX|.oXoXoX|.oXoXoXoXoXoXoXOX|.|.oXoXoXoXoX}.oXoX",
"}.}.}.}.}.}.}.|.}.|.|.}.|.|.|.|.}.|.|.}.|.|.|.}.|.|.}.}.}.}.}.}.}.}.}.}.}.|.|.|.}.}.}.}.}.}.}.}.}.}.|.|.|.|.}.}.}.}.}.}.}.}.}.}.",
"(.(.(.(.(.(.(.(.(.(.}.(.}.(.(.}.(.(.}.(.}.(.}.(.(.}.}.(.(.(.}.(.}.(.(.}.(.(.}.(.}.(.}.(.(.}.(.}.(.(.(.(.(.}.(.(.(.}.(.}.(.(.(.(.",
"!.(.^.^.^.^.^.(.~.~.(.^.^.~.^.^.!.^.(.^.~.~.^.^.^.^.^.(.^.^.^.^.^.^.^.^.^.(.^.^.^.~.^.~./.^.^./.(.^.~.^.^.^.~.^.~.~.^.^.^.^.^.^.",
"!.!.!.Q.!.E.Q.Q.~.~.W.W.E.^.W.~.Q.E.!.!.W.~.~.E.!.!.Q.E.!.Q.!.Q.!.Q.E.E.~.E.!.E.E.~.W.~.~.~.W.~.E.~.W.~.^.Q.Q.~.~.~.~.E.^.Q.E.^.",
"W.I.E.E.E.E.E.Q.P.W.E.I.E.E.E.E.E.E.Q.E.P.W.I.W.E.E.E.E.E.I.E.E.E.E.E.E.P.E.E.E.E.E.I.W.P.E.E.E.E.E.P.E.E.E.E.E.P.W.Y.W.E.W.E.W.",
"I.I.I.I.I.L.E.P.P.P.I.I.I.L.I.L.I.L.E.P.P.P.I.I.L.I.I.L.I.I.L.P.I.I.I.I.P.E.L.L.L.L.I.I.L.L.L.L.L.E.P.P.L.I.I.P.P.P.I.Y.I.Y.Y.I.",
"I.L.I.G.I.I.G.G.L.S.P.P.P.S.P.F.P.F.P.P.F.F.P.F.I.L.L.L.L.L.L.L.L.L.L.S.L.L.L.L.P.P.S.P.P.F.S.P.S.L.L.S.L.S.I.I.L.G.I.I.I.I.U.U.",
"G.L.G.I.G.G.I.G.L.S.S.S.P.S.S.S.F.F.S.S.S.P.F.S.S.S.m.S.S.M.S.S.m.S.S.L.S.S.S.S.S.F.S.S.S.P.S.S.S.L.S.L.E.S.L.M.I.G.M.I.I.D.D.D.",
"G.I.I.G.M.I.M.G.S.S.S.S.S.S.S.S.S.S.S.S.A.S.S.S.S.S.S.A.S.S.S.A.S.S.A.A.S.S.S.S.S.S.A.A.S.S.A.A.A.A.S.S.H.S.S.H.G.I.G.I.D.I.U.D.",
"M.M.M.M.M.M.M.M.A.A.A.A.A.N.A.A.A.A.A.N.A.A.S.N.n.A.A.N.A.A.A.A.A.m.A.A.A.m.N.A.A.N.A.A.N.A.A.A.A.A.A.A.Z.Z.S.S.M.M.M.M.D.D.D.I.",
"A.A.A.A.M.M.M.m.n.n.v.N.N.v.n.v.v.v.v.v.b.b.b.N.v.v.v.v.n.n.v.v.v.v.n.v.v.v.v.v.N.b.b.N.v.v.v.v.b.n.N.N.N.A.N.Z.A.A.M.M.D.D.M.D.",
"N.A.A.n.m.m.m.v.n.v.b.v.b.v.v.v.v.v.v.v.v.k.v.v.l.v.v.v.v.k.v.v.v.v.k.v.v.v.v.v.v.k.k.v.v.v.v.v.v.v.v.N.N.b.b.N.b.A.m.m.M.M.M.M.",
"v.v.v.v.v.v.v.k.g.k.v.k.g.v.j.j.g.k.a.j.a.a.a.a.a.j.j.j.a.a.j.a.g.g.g.k.a.a.l.a.a.k.g.k.a.j.j.j.g.k.k.k.k.k.k.b.v.v.n.n.n.n.M.M.",
"k.k.v.g.a.g.a.a.a.a.a.a.a.a.a.y.y.y.y.a.y.a.r.y.y.r.y.y.y.y.y.y.a.y.y.y.r.r.a.r.u.a.u.a.a.a.a.a.g.a.g.g.g.g.k.k.v.k.l.l.l.m.l.m.",
"k.g.g.a.g.y.y.r.r.0.y.y.e.w.w.8.q.r.0.8.r.0.0.r.0.0.q.8.0.0.0.0.0.0.0.0.r.r.0.0.0.0.0.8.0.e.e.0.0.y.y.y.y.y.y.s.a.a.g.g.k.v.a.v.",
"g.r.0.r.r.r.r.q.0.7.8.7.5.5.5.5.<.7.<.7.<.7.<.<.<.7.<.7.<.1.<.5.7.<.5.<.<.<.<.7.5.1.5.8.<.8.5.8.8.8.0.8.q.q.y.w.r.r.y.y.g.g.g.k.",
"q.0.0.8.4.<.8.<.7.<.1.1.1.,.,.1.<.-.;.-.;.;.-.-.%.-.-.-.%.,.-.%.%.1.%.,.%.-.-.-.,.,.,.1.1.1.,.,.1.1.1.5.5.<.5.8.7.0.0.0.r.r.a.y.",
"<.7.<.<.<.<.<.;.%.;.*.+.%.%.%.%.+.+.+.+.+.+.+.+.+.+.+.+.%.X.%.%.%.{ %.{ X.+.+.+.%.O.O.%.O.%.%.%.%.%.%.%.,.,.:.<.<.<.<.7.7.0.7.r.",
"<.<.;.-.-.+.+.+.X.+.X.X.X.{ { ] } } { { ] { ' } ' ' } ' { ' ' ] ' } ] ' { ] ] { ] { ] { { ] { { [.[._.'.'.%.%.%.,.%.:.<.1.<.7.7.",
"%.+.X.X.X.X.X.' ] { ~ ~ ~ ' ~ ~ ~ ^ ~ ~ ~ ~ E R ~ ^ W W R ~ E R ^ R ~ ~ ' ~ ~ ~ ~ ~ ^ _ ] ) ] [.[.[.[.[.[.] { O.O.O.%.%.%.-.;.<.",
"X.X.' ' ' ~ W ~ ~ R R R ~ I I I R I R I R P P R P I P P R I I I P P P I I I I R I I I ~ ~ I [.[.[.[.[.[.[.[.~ ' ' ] { X.{ %.%.-.",
"        .   . I I I P P G I G I G G G H D H H G G D D G D D D G G G G G H D G D G G G G H G [.[.[.[.[.[.a a a ~ ~ ~ ~ ' { { { O.",
"                      F S F S S A A A A A A A A A D A A A D A A A A A A A A A A D D A A A A [.[.[.[.s s s s s P P R R R R E ' ' ",
"                                        B B B B V v B B B V v B C B B B B B V V V V B A V V [.[.[.s s s s [.[.[.F F H P U R R E ",
"                                            v v v v v v v v v v v v v v v v v v v v v v B m s s s s s [.[.[.[.s D A D F H H P R ",
"                                                j j l l j j j j h l j j l l l l l l l j j l l s s s [.[.[.[.[.s s V V A D D D F ",
"                                                .     h u p j h p h p p f f f h p j p j j p j [.[.[.[.[.[.s s s s v v B A A A > ",
"                                                            u u p u p u f u u u p u i i p p p ).[.[.[.s s s s s [.l v j v > > > ",
"                                                              u w w w w u w w w w w w w u w w w ).s s s s s s [.[.[.> > > > > > ",
"                                                              0 9 9 9 9 9 9 9 9 0 0 0 0 0 9 0 9 s s s s s [.[.[.[.[.> > > > > > ",
"                                                                6 6 6 6 6 6 6 6 6 4 [.[.[.s s 6 s s [.[.[.[.[.[.[.[.s > > > > > ",
"                                                                  2 2 2 2 2 2 2 2 [.[.[.s s s [.< [.[.[.[.[.[.[.s s s O > > > > ",
"                    : : :                                                 2 2 , [.[.[.[.s s s [.+ [.[.[.[.[.s s s s s , > > > > ",
"                  * : : =                   : :                             , , [.[.[.s s s [.[.O , [.[.s s s s s s [.[.> > > > ",
"                  : : : %               : : : :           $ ! ! !             + s s s s s s [.s a , @ a s s s [.[.[.[.[.> > > > ",
"                : : : : @               * : : :           ! ! ! !               s s s s [.[.[.s a + > a s s [.[.[.[.[.[.> > > > ",
"              : : : : * O             : : - *           . Q ! ! ! &     > > > > s [.[.[.[.[.s s a [.> > [.[.[.[.[.[.].].> > > > ",
"              : : : : : .             : : : :             ! ! ! ! & > > > > > > > [.[.[.[.s s s s [.> > [.[.[.[.[.[.].s s > > > ",
"              : : : : : #     :       : : : :             ! ! ! ! & > > > > > > > [.s s s s s [.[.s s > [.[.[.[.[.s s s s > > > ",
"              : : : * : :     : :     : * : :             ! ! ! ! & & > > > > > > > s s s s [.[.[.s s > s s s s s s s s s > > > ",
"                : : : : :     : :     : - - :       + > > ! ! ! ! & & > > > > > > > > > [.[.[.[.s s s > > s s s s s [.[.[.> > > ",
"                : : : * :     * :       : : :     + > > > ! ! ! ! ! & & > > > > > > > > [.[.s s s s s [.> [.[.[.[.[.[.[.[.> > > ",
"              * : : : : :       : :     : : * ! ! ! ! & > ! ! ! ! ! & & > > > > > > > > > s s s s s [.[.> [.[.[.[.[.[.[.[.> > > ",
"            : : : : : :         : :       : : ! ! ! & & > > ! ! ! ! & & > > > > > > > > > s s s [.[.[.s s > [.[.[.[.[.[.s s > > ",
"            : : : : : :         : *       : ! ! ! ! & & > > ! ! ! ! & & > > > > > > > > > > [.[.[.[.s s s > s s s s s s s s > > ",
"            : : : :             : :       : ! ! ! & & > > > ! ! ! ! & & > > > > > > > > > > [.[.[.s s s s > s s s s s s s [.> > ",
"          : : : * :             : :     : : ! ! ! & & > > > ! ! ! ! & & > > > ! ! & & > > > > s s s s s [.[.> [.[.[.[.[.[.[.> > ",
"          : : : : :           : : :     : : ! ! ! & & & > > ! ! ! ! & & > > > ! ! & & > > > > s s s s [.[.[.> [.[.[.[.[.[.[.> > ",
"          * : : :           : : : : > > : * ! ! ! ! & & & > ! ! ! & & > > > > ! ! & & > > > > > s [.[.[.[.s > [.[.[.[.[.[.[.> > ",
"          : : : :         : : : * > > : : : ! ! ! ! ! & & + ! ! ! & > > > > ! ! ! & & > > > > > > [.[.s s s > s s s s s s s > > ",
"          : * : : :       - * ; : > > : : : : ! ! ! ! ! & & ! ! ! & > > > ! ! ! Q & & > > > > > > [.s s s s [.> s s s s s s > > ",
"          : : : : : :   , - ; ; > > > * : : : ! ! ! ! ! ! ! ! ! ! & > > ! ! ! ! & & > > > > > > > s s s s [.[.> [.[.[.[.[.[.> > ",
"          : : : : : : > @ : ; ; > > > : : : > > ! ! ! ! ! ! ! ! ! & > ! ! ! ! & & & > > > > > > > > s [.[.[.[.> [.[.[.[.[.[.> > ",
"            : : : * ; > > : : * : > > : : * > > ! ! ! ! ! ! ! ! ! ! ! ! ! ! ! & & & > > > > > > > > [.[.[.[.[.> s s s s s s > > "
};
