/* XPM */
static char *sea2[] = {
/* columns rows colors chars-per-pixel */
"64 64 119 2 ",
"   c #7C7E7B",
".  c #AF3765",
"X  c #B03966",
"o  c #B23D69",
"O  c #B4426E",
"+  c #B64671",
"@  c #828179",
"#  c #8A807F",
"$  c #3C6289",
"%  c #3F6790",
"&  c #41668C",
"*  c #44688E",
"=  c #406792",
"-  c #436B94",
";  c #4A6E95",
":  c #446E9A",
">  c #4A7097",
",  c #45719D",
"<  c #4B739C",
"1  c #4D7D9E",
"2  c #51759C",
"3  c #53799F",
"4  c #4773A0",
"5  c #4B76A1",
"6  c #4C79A4",
"7  c #4D7EA9",
"8  c #5177A1",
"9  c #547BA3",
"0  c #587EA5",
"q  c #517FA9",
"w  c #DB73BE",
"e  c #DC77C0",
"r  c #DE7BC2",
"t  c #4F81AC",
"y  c #5B80A7",
"u  c #5283AD",
"i  c #5C83AA",
"p  c #548BAF",
"a  c #5D88AF",
"s  c #5386B1",
"d  c #5886B1",
"f  c #558AB4",
"g  c #5B8CB4",
"h  c #598FB9",
"j  c #5892B4",
"k  c #5B93BC",
"l  c #628AA6",
"z  c #6186AC",
"x  c #6389AE",
"c  c #6B8EA9",
"v  c #6D93AD",
"b  c #658CB2",
"n  c #6A8EB3",
"m  c #6591B7",
"M  c #6C93B5",
"N  c #6D9AB4",
"B  c #6494BB",
"V  c #6C95BA",
"C  c #6399BF",
"Z  c #6E99BD",
"A  c #7097B0",
"S  c #729BB5",
"D  c #719ABD",
"F  c #76A2BB",
"G  c #78A6BE",
"H  c #5C97C0",
"J  c #5E99C2",
"K  c #629CC3",
"L  c #6B9DC2",
"P  c #739EC1",
"I  c #65A1C7",
"U  c #6AA2C7",
"Y  c #64A4CA",
"T  c #6BA5CA",
"R  c #67A8CE",
"E  c #6AA9CF",
"W  c #75A2C4",
"Q  c #79A5C5",
"!  c #7CACC5",
"~  c #73A6C9",
"^  c #79A7C8",
"/  c #74AACC",
"(  c #7CACCC",
")  c #7EB1CA",
"_  c #67ACD1",
"`  c #6AADD2",
"'  c #72AED1",
"]  c #7AAFD0",
"[  c #6CB1D6",
"{  c #6EB5D9",
"}  c #73B3D5",
"|  c #7DB2D3",
" . c #75B6D8",
".. c #71BBDD",
"X. c #7CBBDB",
"o. c #72BEE1",
"O. c #75C1E3",
"+. c #7BC4E4",
"@. c #9A9B96",
"#. c #A89D9A",
"$. c #A3A197",
"%. c #80B4CC",
"&. c #82B5D4",
"*. c #83B8D7",
"=. c #85BDDB",
"-. c #DF81C5",
";. c #E084C6",
":. c #85C0DF",
">. c #89C1DE",
",. c #83C6E4",
"<. c #8BC4E1",
"1. c #87C8E5",
"2. c #8AC9E5",
"3. c #8FCCE8",
"4. c #92CDE7",
"5. c #92CEE9",
"6. c #95D0EA",
"7. c #9DD2EA",
"8. c #A0D3EA",
/* pixels */
"8.8.8.8.8.8.8.8.8.8.8.8.8.8.8.8.8.8.5.2.2.,.,.2.2.2.2.2.2.2.2.2.2.,.2.2.,.2.,.2.,.2.2.2.2.2.,.2.2.2.2.2.2.2.,.2.1.2.2.1.2.2.2.1.",
"8.8.8.8.8.8.8.8.8.8.8.8.8.8.8.8.8.8.8.7.3.2.2.2.2.,.2.,.,.2.,.2.2.2.2.,.2.2.2.2.2.2.2.,.2.,.2.2.2.,.2.,.2.,.2.2.2.,.1.2.,.2.2.1.",
"8.8.8.8.8.8.8.8.8.8.8.8.8.8.8.8.8.8.8.8.7.5.<.2.,.2.2.2.2.2.2.,.,.2.,.2.3.,.,.3.1.3.2.3.2.1.3.2.2.1.2.2.2.2.3.1.2.2.,.1.,.2.,.2.",
"8.8.8.8.8.8.8.8.8.8.8.8.8.8.8.8.8.8.8.8.7.8.8.3.2.2.2.,.,.2.2.2.2.2.2.2.,.2.2.,.1.1.,.1.,.1.2.,.1.2.2.,.,.2.2.1.2.1.2.2.2.1.2.2.",
"8.8.8.8.8.8.8.8.8.8.8.8.8.8.8.8.8.8.8.8.8.8.8.8.6.2.2.,.2.2.2.2.2.,.2.2.2.3.,.2.1.3.1.1.3.1.1.1.2.,.2.,.1.1.,.1.1.2.,.2.2.1.2.1.",
"8.8.8.8.8.8.8.8.8.8.8.8.8.8.8.8.8.8.8.8.8.8.8.8.8.7.3.2.,.2.,.2.2.2.2.,.2.,.,.2.1.1.1.1.1.1.1.1.2.2.1.1.2.2.2.1.2.2.2.1.2.1.,.2.",
"8.8.8.8.8.8.8.8.8.8.8.8.8.8.8.8.8.8.8.8.8.8.8.8.8.8.8.7.3.2.2.2.2.2.2.2.2.2.3.,.1.1.1.1.1.1.3.,.2.,.2.2.2.,.1.2.1.1.1.2.,.2.2.2.",
"7.8.8.8.7.8.8.8.8.7.8.8.8.8.8.8.8.8.8.8.8.8.8.8.8.8.8.8.7.5.,.2.2.,.2.2.,.2.,.2.1.1.1.1.3.1.1.,.1.2.2.1.2.2.2.2.,.2.1.2.2.1.2.1.",
"8.7.7.7.8.8.7.7.8.8.7.8.7.8.7.8.8.8.8.8.8.7.7.7.8.8.7.7.7.7.7.3.2.2.2.2.1.1.1.1.1.1.1.1.,.1.1.3.1.1.1.1.1.1.1.,.2.1.1.1.1.1.1.1.",
"7.7.7.7.7.7.7.7.7.7.7.7.7.8.7.8.7.8.7.8.8.8.7.7.7.7.8.7.7.7.7.7.5.,.,.,.1.1.1.1.1.1.1.1.3.,.1.,.1.1.1.1.1.1.1.3.1.1.1.1.1.1.1.1.",
"7.7.7.7.7.7.7.7.7.7.7.7.7.7.7.7.8.7.7.8.7.7.7.7.7.7.7.7.7.7.7.7.7.6.3.,.,.,.1.1.,.1.1.,.3.,.,.,.,.,.3.,.,.,.3.+.,.1.1.,.1.,.,.,.",
"6.7.7.6.7.7.7.7.7.7.6.7.7.6.7.7.6.7.6.6.7.5.7.7.7.7.7.7.5.7.7.7.7.7.6.3.,.,.,.1.,.,.1.o.+.,.+.+.1.+.+.,.,.+.+.+.,.o.,.,.+.,.+.,.",
"6.6.6.6.6.6.6.6.5.7.6.6.6.6.6.6.5.6.6.6.7.5.7.5.5.7.5.7.7.5.5.5.6.6.6.6.6.2.o.o.o.,.+.+.+.+.+.+.+.+.+.+.+.+.+.+.+.+.+.+.+.+.+.+.",
"5.6.6.5.6.5.5.5.5.5.5.6.5.5.6.5.7.5.5.6.5.5.5.5.5.5.5.5.5.5.5.7.5.6.5.6.5.5.3.,.o.o.+.+.+.+.+.+.+.+.+.+.+.+.+.+.+.O.+.+.+.+.+.+.",
"5.5.5.5.5.5.5.5.5.5.5.5.3.5.5.5.3.3.5.5.5.5.5.3.5.5.5.5.5.5.5.3.5.5.5.5.5.5.5.3.3.o.o.o.+.+.o.+.O.O.O.O.O.O.O.O.O.O.O.O.O.O.+.O.",
"3.3.5.3.5.3.3.5.3.5.3.3.5.3.5.3.3.3.3.5.3.3.5.3.3.5.3.5.3.5.3.3.3.3.3.3.3.3.3.3.5.3.+.o.o.o.+.o.O.O.o.O.o.O.O.O.O.O.O.O.O.O.O.O.",
"3.3.3.3.3.4.3.3.<.4.<.%.2.4.2.4.2.4.2.4.2.3.3.2.3.5.5.3.3.3.3.3.3.4.4.4.3.4.3.3.3.3.2.:.o.o.o.o.o.o.o.o.o.o.o.o.o.o.o.o.o.o.o.o.",
"+.3.3.4.2.2.3.<.4.4.4.4.3.<.4.2.2.2.4.2.4.<.2.4.3.<.<.<.<.3.3.3.2.2.2.2.2.2.2.3.2.2.2.2.1.o.o.o.o.o.o.o.o.{ o.o.o.o.o.o.o.o.o.o.",
"o.3.3.3.2.4.2.2.%.%.4.<.2.4.2.4.4.4.<.4.2.2.2.4.<.5.5.<.3.<.3.<.2.4.4.<.2.<.2.<.2.2.2.,.2.,.o.X.o...o.o.o.o.o.o.o.o.o.o.o.o.o.o.",
"o.,.<.2.>.2.2.4.<.4.<.%.%.>.%.<.<.2.2.2.<.4.2.>.4.<.<.4.<.3.<.3.<.<.2.<.4.2.2.2.2.>.2.2.>.,.:.,.o...o.o.o.o.{ ..o.{ o.{ o.o.o.o.",
"..X.2.4.4.2.>.4.=.4.=.4.<.<.<.<.%.>.%.%.<.<.<.4.<.<.<.<.<.<.<.<.<.4.>.<.<.<.<.<.>.,.>.<.,.=.,.+.o.o. .......o...........o.......",
"....>.2.>.4.<.>.%.%.4.=.<.%.<.<.%.%.>.>.G G >.>.<.>.>.<.<.<.<.<.>.<.>.<.<.<.<.>.>.<.>.>.=.,.=.=.o.:.=. .{ { {  .{ ..............",
"{ { X.<.>.>.%.%.=.<.=.%.%.=.=.G =.=.>.G G >.G >.&.*.>.>.<.>.>.>.>.>.>.<.<.>.=.,.=.,.=.,.,.*.=.X.*.o.*.o.X.{ { { { { { { { ......",
"{ {  .>.G >.>.=.*.%.%.<.=.=.%.%.G =.F >.=.>.>.>.>.=.>.=.>.>.=.>.>.>.=.>.>.=.=.=.=.=.=.*.X.*.X.X.o.*. . . . .{ [ { { { { { { { { ",
"{ [ [ X.>.>.>.>.=.>.=.=.=.G =.%.F F =.=.&.A %.&.*.&.=.=.&.&.&.=.=.=.=.=.=.=.=.=.=.=.X.X.*.X.X. .|  . . . . .} { [ _ [ [ { { [ { ",
"[ _ [ [ =.! =.G =.G *.! Q =.=.S S *.*.S %.&.%.&.%.c *.*.&.&.&.*.*.*.*.&.*.*.*.*.*.| | X.| | | } } } } ' [ ' ' [ [ { ` [ [ [ [ { ",
"_ _ _ _ N S *.*.Q *.G F &.&.&.&.*.&.S &.&.&.D n &.&.&.&.&.&.&.&.&.&.&.&.&.&.&.&.| | | | } ;./ | ' ' ' ' E E E ' _ [ ` [ _ _ [ [ ",
"R R R Y ' *.*.*.G F &.&.S S &.&.%.S &.%.&.&.&.&.&.&.&.&.&.&.&.&.&.%.&.&.] | ) | | ] ] ;.;.;./ ' / ' E / ` ` E R R R R R _ _ _ R ",
"Y Y f Y Y } N F S &.A A &.&.&.n S %.&.v A &.&.%.%.%.%.P &.&.&.&.( &.] ] ] ( ] ( ( ;./ / ;./ ~ ~ T T E T T R R E Y Y R Y R R R R ",
"I Y Y J t a ) ) %.( ( ( S c A ] %.%.v A %.A n &.%.%.%.%.&.P D &.( ^ ( ( ( ( ^ ^ ~ -.;./ ;.T r r L T L L L K K L Y Y Y R Y R R Y ",
"J I p 1 j I ) v M S S S ( ^ ^ ( P c %.n P P %.P %.P %.P P &.D &.^ ^ ^ ^ ~ W ~ ~ ~ ~ ~ ;.;.r r L L K K K K K K K K K I J I Y Y Y ",
"H H H H k k a ! v Q ^ A A c ^ c c %.P P n %.P %.P %.P %.%.D %.V ^ P Q W W ~ W P P P L L r ;.L K K L K K K H K K H H J J J J I J ",
"H H h H d d J ~ P &.D %.%.P n 0 P %.P %.P P %.P P Q Q P P ^ P P P P P P P P L P L -.L -.r C B B B B B k B k k B k H k H H J J J ",
"h h h s h h d P P P P D D D %.D P P P P %.P P P P P P P P W P P Q P P D L P Z L Z -.-.-.B B B B k k B k h h k h h k k k k k J H ",
"h h h h d s s J P P %.D D P D %.P P P P P P P D P P P P P P P D P P Z L L Z V V V V ;.r B B b B h g g g g h j g g h h h h h k k ",
"f s s h s s s s P P D P P D n %.P P D D P V P D P P D D D P Z D Z Z V V V ;.B B B m B ;.r j g g g g g f g e f f f g f f h h h h ",
"s s s s s s t s n D D D %.n V D V %.0 %.D D D D D D V D Z Z Z V Z V V V M ;.m m m m g b g r r g g d g d s w w s s f f f f h s h ",
"s s s t t t t t n D D D D V V V V V %.0 V D D V V D V V V V V V M B M B m ;.b m b d g d d d r d u d u w u u w u s t s t s s f s ",
"7 7 7 7 7 7 q q 8 n n D V P V V D D 0 %.V V V V V V V M M M M M m m -.-.m ;.g g d b d d i r i u u u u w r u w u t t t t t t t t ",
"7 7 7 7 7 6 7 q 8 z D n V n V n n n D 0 M M M M M M n n M m b b b b b ;.-.r x d g + i i u r q u u q q q w w 7 7 7 7 7 t t t t t ",
"7 4 4 4 4 7 4 4 4 8 n n n n n n n n n n n n n n M x x b b x b x x x d z i -.-.i u + O O r w 0 q 7 6 9 6 w w 6 6 5 5 6 5 6 6 6 6 ",
"4 4 4 4 4 4 4 4 4 4 0 n b b n n n n n n n 0 0 n x x x x x x i z i ;.;.0 i y r r 0 O O q r 5 6 5 5 5 5 5 5 w , 4 4 4 , w , 1 4 4 ",
"4 4 4 : 4 : 4 4 4 4 8 n 0 n n x 0 n 0 n n n n 0 z z z i i i i i i i r r r r r r + O 5 w e 5 5 < < < , , , e 4 , , , , w 4 , % 4 ",
"4 4 : 4 : 4 4 4 : : : 0 n 0 0 n 0 n n 0 0 0 n 0 z i i i i y i y 0 q 0 0 ;.r 8 r r r 2 r 5 5 < X , , , , , w , : % 4 , w , 4 % , ",
": : : : : : : : : : : 8 0 n 0 n n 0 0 0 0 n 0 0 y y y y y 0 0 y 0 9 9 9 8 8 8 8 O e e e < , < o , : w e e : : : % 4 % e % % , % ",
": : : : : : : : : : : : 0 0 z 0 0 n 0 0 0 0 n 0 y y y 9 0 9 9 9 9 8 8 8 8 < 5 < o < < r w : X , > w w w r % % , 4 % % e % , 4 % ",
": : : : : : : : : : ; ; 0 0 0 0 0 0 0 0 0 0 0 0 y 9 y 9 8 9 9 2 8 8 O < < < < < o o > > e w w > : w : - % O , % % % % e % 4 % % ",
": : : : : : : : : : ; ; ; 0 0 0 0 0 0 0 0 0 0 0 3 9 3 3 8 8 2 O 5 2 O O < < r > , o o , o X : w w w : - % O % , % 4 e -.% % % 4 ",
": : = : = = : : = = = = = 4 4 4 y 2 y y 2 2 2 2 2 2 2 2 1 < < O > > 2 o o o e e X X o o X - - w w w - = . . $ = = w e % = % = = ",
"= = = = = $ = = = = = = = : 4 4 2 2 ; 2 2 ; 2 2 2 ; > > > > > > O o o e e ; ; w ; - = . X = - - w w X X . $ % w w w = = % % % % ",
"= = = = $ $ $ $ = % % % $ = 4 4 ; ; ; ; ; ; ; ; ; > ; ; , > % % ; = = = e = * w = = w = o & & $ & w . $ $ $ w $ $ $ $ % $ % $ $ ",
"$ $ $ $ $ $ $ $ % $ $ $ $ = = : ; ; ; ; ; ; ; * ; * ; * % % % % = * = = & w w w & & w = X $ $ $ e w e $ w w w $ $ $ $ % $ $ $ $ ",
"$ $ $ $ $ $ $ $ $ $ $ $ $ $ $ = * * ; * * * % % * * % % % % $ o o & & & & $ & w w $ e $ . $ $ $ $ w w w w $ $ $ $ $ $ $ $ $ $ $ ",
"$ $ $ $ $ $ $ $ $ $ $ $ $ $ $ = & * * * * % % % * * % $ & & $ . & & & & & $ $ $ w w w $ $ . $ $ w w w w $ $ $ $ $ $ $ $ $ $ $ $ ",
"$ $ $ $ $ $ $ $ $ $ $ $ $ $ $ $ & * & * * * $ % * $ $ $ % & & . & & $ . & $ & $ $ w w w w w w w w w w $ $ $ $ $ $ $ $ $ % $.@.@.",
"$ $ $ $ $ $ $ $ $ $ $ $ $ $ $ $ & & & * $ % $ $   $ $ $ % $ $   X X X . . $ $ $ $ $ $ $ $ . $ #.w w w $ $ $ $ $ $ $ $ $.@.@.#.#.",
"$ $ $ $ $ $ $ $ $ $ $ $ $ $ $ $ $ $ $ $ & $ $ $ $ $ $ $ $ & $ $ $ $ $ . . & $ $ $ $ $ $ $ . $ . w w w w $ $ $ $ $ $ $.$.$.$.$.$.",
"$ $ $ $ $ $ $ $ $ $ $ $ $ $ $ $ $ $ % % & $ $   $ $ $ $   & $ $ $ & $ & . . . . . . $ $ $ . $ . $ w w w $.$.$.$.#.@.$.$.$.$.@ $.",
"$ $ $ $ $ $ $ $ $ $ $ $ $ $ $ $ $ $ $ $ $ $ & $ $ $ $ $ $ $ . $ $ & $ $ $ $ & $ . . $ $ $ . . . $ @.$.$.$.$.@ $.@.$.$.$.$.$.$.$.",
"$ $ $ $ $ $ $ $ $ $ $ $ $ $ $ $ $ $ % $ $ & $ $ $ $ $ $ $ $ . . $ $ . $ $ $ $ $ . . . . . . . . . $.#.#.$.#.# #   @.@.@.@.@.@.@.",
"$ $ $ $ $ $ $ $ $ $ $ $ $ $ $ $ $ $ $ $ $ $ % $ $ $ $ $ $ $ $ O . $ . $ $ . . . . . . . . . . o $.$.$.$.$.@ @ @ @ @ $.$.$.$.$.@ ",
"$ $ $ $ $ $ $ $ $ $ $ $ $ $ $ $ $ $ $ $ $ $ $ $ $ $ $ $ $ $ $ $ . . . . . $ $ $ $ $ $ . . . . o $.$.$.$.$.$.$.$.$.$.$.@ @ @ @ @ ",
"$ $ $ $ $ $ $ $ $ $ $ $ $ $ $ $ $ $ $ $ $ $ $ $ $ $ $ $ $ $ $ $ $ $ $ $ $ $ $ $ $ $ $ $ $ $ $ $.      @.@.      @.@.@.          ",
"$ $ $ $ $ $ $ $ $ $ $ $ $ $ $ $ $ $ $ $ $ % $ $ % $ $ $ $ $ $ $ $ $ $ $ $ $ $ $ $ $ $ $ $ $ $.$.$.@.  + @ $.$.$.@ @ @ @ @ @ @ @ "
};
