/* XPM */
static char *sea3[] = {
/* columns rows colors chars-per-pixel */
"64 64 88 1 ",
"  c #306010",
". c #3F603C",
"X c #4E7B76",
"o c #4F7D78",
"O c #507E79",
"+ c #886530",
"@ c #598A54",
"# c #54835F",
"$ c #558662",
"% c #578864",
"& c #588A66",
"* c #558672",
"= c #568874",
"- c #52807B",
"; c #6AD46E",
": c #828179",
"> c #94AF62",
", c #D4AA6A",
"< c #BBD46A",
"1 c #DCC276",
"2 c #3B628A",
"3 c #3F6790",
"4 c #406792",
"5 c #416A95",
"6 c #4B6E92",
"7 c #436E9A",
"8 c #4F7196",
"9 c #45719D",
"0 c #4E7198",
"q c #5C7B9E",
"w c #4773A0",
"e c #4976A2",
"r c #4B7AA6",
"t c #4D7EAA",
"y c #537BA2",
"u c #578A85",
"i c #4F81AD",
"p c #5083AE",
"a c #5D83AA",
"s c #5186B1",
"d c #558BB5",
"f c #578EB8",
"g c #588EB9",
"h c #5994BD",
"j c #6081A5",
"k c #6986A4",
"l c #6E8BA7",
"z c #6388AE",
"x c #6A8BAC",
"c c #738EAD",
"v c #668BB1",
"b c #6A8DB1",
"n c #6E94B7",
"m c #7695B4",
"M c #7C95B1",
"N c #7F98B1",
"B c #5C97C0",
"V c #5E9AC3",
"C c #609EC5",
"Z c #61A0C7",
"A c #63A4CB",
"S c #66A8CF",
"D c #67ACD1",
"F c #69AED3",
"G c #6BB1D6",
"H c #6EB5D9",
"J c #6FBADC",
"K c #70BBDE",
"L c #72BEE1",
"P c #75C1E3",
"I c #7BC4E4",
"U c #A3A197",
"Y c #819AB4",
"T c #839DB9",
"R c #8EA4BC",
"E c #86A3C1",
"W c #93A9C1",
"Q c #93AEC9",
"! c #9CB0C6",
"~ c #9CB3CB",
"^ c #A5B6C9",
"/ c #A4B8CD",
"( c #A9BACD",
") c #ADC1D4",
"_ c #83C6E5",
"` c #87C8E5",
"' c #88C8E5",
"] c white",
/* pixels */
"''''''''''''''''''''''''''''''''''''''''''''''''''''''''''''''''",
"''''''''''''''''''''''''''''''''''''''''''''''''''''''''''''''''",
"''''''''''''''''''''''''''''''''''''''''''''''''''''''''''''''''",
"''''''''''''''''''''''''''''''''''''''''''''''''''''''''''''''''",
"''''''''''''''''''''''''''''''''''''''''''''''''''''''''''''''''",
"''''''''''''''''''''''''''''''''''''''''''''''''''''''''''''''''",
"''''''''''''''''''''''''''''''''''''''''''''''''''''''''''''''''",
"`'``'''''`'''``'''''`''`''''''`'''''''`'''`'''`''''`''''''`''''`",
"``````'''```````'''```''`````````''''```````````````````````````",
"_``````'``````'_''``'_''`````````_``'_````_`````````````````````",
"__`_____________________`_``__`_____________`_____```_`__`___`__",
"I_I_I_I_I_______I__I___I_II_I__I_I_____I____I____II__III_I___I_I",
"IIIIIIIIIIIIIIIIIIIIIIIIIIIIIIIIIIIIIIIIIIIIIIIIIIIIIIIIIIIIIIII",
"IIIIIIIIIIIPPIIIIIIIIIIPIIIIPPIIIIIIIIIIIIIIIIPIIIIIIPIIIIIIIIII",
"PPPPPPPPPPPPPPPPPPPPPPPPPPPPPPPPPPPPLPIPPPPPPPPPPPIPPPPPPPPPPPPP",
"PPPPPLPPPPPPPPPPPPPPPLPPPPPPPPPPPPPPPLLPLLPPLPPPPPPPPPPPPPPPPPPP",
"PLPLLLLLLLLLLLLLLLLLLLLLPLLPLLPLLLLLLLLLLLLLLLLLLLLLLLLLLLLLLLLL",
"LLLLLLLKLK<<<<<<<KKLLLKKJLLJLJJLJKLLLKKLKLKLLLJLLLLLLLLJLLLLLLLL",
"LLLPLLJL<<<;;;;;;;KKKKKKLJJLJLLJLJKKJLLJJLLJJJKLKKLKLJLLLLLLLLLL",
"LJJJJKJJ<<;;;;;;;;;;KKKKJJJJJJJJJJKJJJKKJJKJJJJKKJJKLHLHJJJKLLLL",
"KKJKJJJJJ<<;;;;;;;;;;HJJHHJHHJHJHJHJHHJHHHHJHHJHJJJJJJLLHLKKKKKK",
"JKJJJJHHJH<<<;;;;;;;;;GGHJGHHHHJHHHHHHHHHHHHHHHHHHHHHHGLLJJKKKKK",
"HHHHHHHHH  G<;;;;;;;;;;GHGGHFGGGHHFHGGGGGGGHHGGHGHGHHHHHHHHHHKHK",
"HHHGHGGGGG   <;;;;;;] ;;FFFFFFFDFFFFFGGFGGGFGGGFGGGGGGGHHGHHHHHH",
"HGGGGGGFFFF  <;;;;;;]];;;DDDSDDDDDFFFDDDDDDDDDDDDGGGGGGGGGGGHHHH",
"FFFFDFDDFS   <;;;;;;;;;;;AADSSSSDAASADDASSDSADDDDADDDDDFFFDGGGGG",
"DDDDSSSSA  A<;;;;;;;;;;;ZAAAZAAAZAAAAAAZAAAAAAAAAAAAASSSSDDDDGGG",
"SSSASAAAAAA<;;;;;;;; ;;ZZZZZZZZAZCZCCZZZZZAAZAZAAAAAAASAASSSADDD",
"AAAAAZZZVZV<<<;;;;;  VVVVVVVVVVVVCVVVVCVVVVVVVVVVVAVAZAAAAAAASSD",
"ACCCCVVVVVVVV<<<<<  BBBBBBhBBBhhVhhhBBBBBBVBVVV..VVVVVVVCCCAAAAA",
"CCVBVBBBVBBBBBBBhB BhBfBhhhhhhhhhhhhhhhhghhhBhB...BBBBBBCVCVCCCA",
"BBBBBBhhBgggffdfdgffdfffdfdfffffffffffgggggggggg..hhgBBBBBBVCVCC",
"BBgBBggggggggdddBtBtddddBdBtBtdddddddddgdddddggd..ffggghhhBBBBBV",
"ggggddgdddddddddtBtBtBtBtdtBtBtBdsdsdssdddddsddd..du@&ffdfghhhBB",
"dgddddddsddsdsdddtttdttttdtdtBttsssssssspssssdp...=@@&dddddgfhfB",
"ddddssdsssdtdttdtBBttdBtttdtttBtppippsispppsppp...=@*ssdddddddff",
"dsssstsdtsssttdttttttttttdttttttiiitiiiitippii...p*@*pppssssdddd",
"ppppsttttttttttttttttttttttttttttitttittttttit...i*@*iipipsssssd",
"sttttttttttttrttttttttttttttttttttttt>>>ttrttt...t*@@%itiiiiiiss",
"rrtrrrtrrrrtrrytQ/Ctrrrrrtttrreerrrrr>>>rrrrrr...t*@@%rrirrririr",
"rrreeeeeeeeeeeeQEv(tyeeeweeweeeeeeee,,,,eeeeee...rwu@@@r9ererrrr",
"ewwwwwww9wwww9w~qw/teewe99wwwwww9w,,1111,,@999...r3-@@@i99ww3rww",
"ww7ww9w7w97w999b))/w9999999997ww79,111111,@999....3-@@@33r3r993w",
"w7w7797w97977997tqw97997997990779,1+]11111,@9+....3-@@@re3w33w39",
"97777779777777779777777797777777,,1]]11111,,++7...3-@@@33w339w39",
"77777777777777777777777777777777,111111111,,++9...3-@@@333ww3333",
"777777777777777777777777w9777777,111111111,@3++....@@@&3w3w3w3w3",
"777777777777777777477779qmy574045,,111111,>@73.....@@@@3w33333w3",
"77373737754355554644440^WT(q444444,,111,,,>444.....@@$3333333337",
"3443443344444444464444qW44q^4444334>,,,,++>442.....@@#3333333333",
"4334424444442444222644cY220/2222233>>>>>>++422.....@@$3232322333",
"22222222222222222222228^q0RY2222224>>>>>>@@@22.....@@@@222222222",
"UUUU2222222222222222222qW/c22222222>>>>>>@@@@2...$@@@@@222222222",
"UUUUUU22222222222222222222222222222>>>>>>>@@@22..#@@@@@22222UUU2",
"UUUUUUUUU2222222226lc622222222222222>>>>>>@@@22...@@@UUU222UUUUU",
"UUUUUUUUUUU222222q^YY^q22222222222222>>>>>>@@22....@UUUUUUUUUUUU",
"UUUUUUUUUUUUUUUUU(6226(822222222222222>>>>>@@2.....UUUUUUUUUU:::",
":U:::UUUUUUUUUUUUUU222Yc22222222222222>>>>>@22......UUUU:O::::::",
"::::::UUUUUUUUUUUU:2X2Mq2222222222222@>>>>>222......UUUU::::::::",
":::::::UUUUUUUUUU:::22^62222222222222@>>>>2222.....UUUUUUU::::::",
":::::::UUUU:O:UUU::U:(q22222222222222>>>>@2UUU...UUUUUU::U::::::",
"::::::UU:::::::UUUUU:OX2222222222UUU>>>>UUUUUUUU.U::::U::UU:::::",
"U::UUUUU:::::::UUUUU::U222222222UUUUUU>UUUUUU:::UU:::::::UUUUUUU",
"::::UUUUUUU::::::UUUUU:22222222UUUUUUUU:::::::::UUUU::::UUUUUUUU"
};
