/* XPM */
static char *sea4[] = {
/* columns rows colors chars-per-pixel */
"64 64 232 2 ",
"   c #2B3D4F",
".  c #2B3D50",
"X  c #2B3E50",
"o  c #2C3F53",
"O  c #2D4154",
"+  c #30475D",
"@  c #344F69",
"#  c #3F5770",
"$  c #828179",
"%  c #3D5F81",
"&  c #41678C",
"*  c #426990",
"=  c #436A91",
"-  c #446C94",
";  c #4D8099",
":  c #4E809A",
">  c #4D829A",
",  c #4E839B",
"<  c #4E839C",
"1  c #4F849C",
"2  c #4F859C",
"3  c #4F859E",
"4  c #50859D",
"5  c #50859E",
"6  c #50859F",
"7  c #51869E",
"8  c #52879E",
"9  c #53879E",
"0  c #54879E",
"q  c #54889F",
"w  c #5184A7",
"e  c #5388A0",
"r  c #5289A2",
"t  c #5389A3",
"y  c #528AA3",
"u  c #5789A0",
"i  c #568AA0",
"p  c #568AA2",
"a  c #5389A4",
"s  c #538BA4",
"d  c #548BA4",
"f  c #548BA7",
"g  c #548DA7",
"h  c #598AA0",
"j  c #5C8AA0",
"k  c #5E8BA0",
"l  c #5D8CA2",
"z  c #598DA5",
"x  c #5A8FA7",
"c  c #548BA8",
"v  c #5A8FA8",
"b  c #5D90A6",
"n  c #5691AA",
"m  c #5B91AA",
"M  c #5C93AB",
"N  c #5894AF",
"B  c #5388B2",
"V  c #5389B3",
"C  c #558BB6",
"Z  c #578EB7",
"A  c #578EB8",
"S  c #588EB9",
"D  c #588FB9",
"F  c #5994B0",
"G  c #5A96B1",
"H  c #5A97B2",
"J  c #5A97B3",
"K  c #5B97B4",
"L  c #5B99B5",
"P  c #5890BA",
"I  c #5891BA",
"U  c #5992BB",
"Y  c #5993BC",
"T  c #5994BC",
"R  c #5994BD",
"E  c #5A95BE",
"W  c #5A96BF",
"Q  c #5B96BF",
"!  c #5B97BF",
"~  c #5F9FBC",
"^  c #6297AF",
"/  c #6097B1",
"(  c #629BB5",
")  c #6B9EB5",
"_  c #65A0BB",
"`  c #60A1BE",
"'  c #65A0BD",
"]  c #66A4BF",
"[  c #6CA2B9",
"{  c #6CA2BB",
"}  c #69A2BC",
"|  c #5C97C0",
" . c #5C98C1",
".. c #5D98C1",
"X. c #5D98C2",
"o. c #5D99C2",
"O. c #5E99C2",
"+. c #5E9AC2",
"@. c #5E9AC3",
"#. c #5E9BC3",
"$. c #5F9DC2",
"%. c #5E9CC3",
"&. c #5F9CC3",
"*. c #5F9CC4",
"=. c #5F9DC4",
"-. c #5F9EC5",
";. c #609DC5",
":. c #619EC6",
">. c #609FC6",
",. c #61A2C0",
"<. c #63A4C1",
"1. c #62A4C2",
"2. c #62A2C5",
"3. c #61A0C7",
"4. c #63A6C4",
"5. c #64A7C6",
"6. c #6AA8C4",
"7. c #6BAAC6",
"8. c #61A1C8",
"9. c #62A1C8",
"0. c #62A2C8",
"q. c #63A2C8",
"w. c #63A3C9",
"e. c #63A3CA",
"r. c #63A4CA",
"t. c #63A4CB",
"y. c #64A4CB",
"u. c #64A4CC",
"i. c #64A5CC",
"p. c #64A5CD",
"a. c #64A6CD",
"s. c #64A7CD",
"d. c #65A7CD",
"f. c #65A7CE",
"g. c #66A8CE",
"h. c #66A8CF",
"j. c #66A9CF",
"k. c #67A9CF",
"l. c #6DAECA",
"z. c #6BAECD",
"x. c #69AECE",
"c. c #69AFCF",
"v. c #71A7C0",
"b. c #72A9C2",
"n. c #71AFCB",
"m. c #74AEC9",
"M. c #78B2CC",
"N. c #67AAD0",
"B. c #67ACD1",
"V. c #67ADD1",
"C. c #68ADD0",
"Z. c #68ACD1",
"A. c #68ADD2",
"S. c #68AED3",
"D. c #69AED3",
"F. c #69AFD3",
"G. c #69AFD4",
"H. c #6AB0D4",
"J. c #6AB0D5",
"K. c #6AB1D5",
"L. c #6BB1D6",
"P. c #6BB1D7",
"I. c #6BB2D7",
"U. c #6CB1D6",
"Y. c #6CB1D7",
"T. c #6CB2D7",
"R. c #6CB4D5",
"E. c #6CB2D8",
"W. c #6CB3D8",
"Q. c #6CB4D9",
"!. c #6DB4D9",
"~. c #6DB5D9",
"^. c #6EB5D9",
"/. c #6FB7D8",
"(. c #6EB6DA",
"). c #6FB6DA",
"_. c #6FB7DB",
"`. c #6EB8DA",
"'. c #6FB9DB",
"]. c #6EBADB",
"[. c #6FBADC",
"{. c #6FBBDC",
"}. c #6FBADD",
"|. c #71B5D2",
" X c #7AB6D3",
".X c #7AB7D4",
"XX c #72B8D7",
"oX c #70B8DB",
"OX c #75B9D8",
"+X c #70B8DC",
"@X c #70B9DC",
"#X c #70BADD",
"$X c #70BBDD",
"%X c #70BBDE",
"&X c #70BCDE",
"*X c #71BCDE",
"=X c #70BCDF",
"-X c #71BDDF",
";X c #76BEDF",
":X c #7EBCD8",
">X c #79BFDF",
",X c #71BDE0",
"<X c #71BEE0",
"1X c #72BEE1",
"2X c #72BEE2",
"3X c #73BFE2",
"4X c #73BFE3",
"5X c #74C0E2",
"6X c #74C0E3",
"7X c #74C1E3",
"8X c #75C1E3",
"9X c #76C1E3",
"0X c #77C1E3",
"qX c #76C2E4",
"wX c #7AC0E1",
"eX c #78C1E2",
"rX c #79C1E3",
"tX c #7DC2E1",
"yX c #79C3E4",
"uX c #7BC4E4",
"iX c #7BC5E5",
"pX c #7CC4E5",
"aX c #7FC6E5",
"sX c #A3A197",
"dX c #80C6E5",
"fX c #83C6E5",
"gX c #84C6E5",
"hX c #86C7E5",
"jX c #87C7E5",
"kX c #86C8E5",
"lX c #87C8E5",
"zX c #88C8E5",
/* pixels */
"zXzXzXzXzXzXzXzXzXzXzXzXzXzXzXzXzXzXzXzXzXzXzXzXzXzXzXzXzXzXzXzXzXzXzXzXzXzXzXzXzXzXzXzXzXzXzXzXzXzXzXzXzXzXzXzXzXzXzXzXzXzXzXzX",
"zXzXzXzXzXzXzXzXzXzXzXzXzXzXzXzXzXzXzXzXzXzXzXzXzXzXzXzXzXzXzXzXzXzXzXzXzXzXzXzXzXzXzXzXzXzXzXzXzXzXzXzXzXzXzXzXzXzXzXzXzXzXzXzX",
"zXzXzXzXzXzXzXzXzXzXzXzXzXzXzXzXzXzXzXzXzXzXzXzXzXzXzXzXzXzXzXzXzXzXzXzXzXzXzXzXzXzXzXzXzXzXzXzXzXzXzXzXzXzXzXzXzXzXzXzXzXzXzXzX",
"zXzXzXzXzXzXzXzXzXzXzXzXzXzXzXzXzXzXzXzXzXzXzXzXzXzXzXzXzXzXzXzXzXzXzXzXzXzXzXzXzXzXzXzXzXzXzXzXzXzXzXzXzXzXzXzXzXzXzXzXzXzXzXzX",
"zXzXzXzXzXzXzXzXzXzXzXzXzXzXzXzXzXzXzXzXzXzXzXzXzXzXzXzXzXzXzXzXzXzXzXzXzXzXzXzXzXzXzXzXzXzXzXzXzXzXzXzXzXzXzXzXzXzXzXzXzXzXzXzX",
"zXzXzXzXzXzXzXzXzXzXzXzXzXzXzXzXzXzXzXzXzXzXzXzXzXzXzXzXzXzXzXzXzXzXzXzXzXzXzXzXzXzXzXzXzXzXzXzXzXzXzXzXzXzXzXzXzXzXzXzXzXzXzXzX",
"zXzXzXzXzXzXzXzXzXzXzXzXzXzXzXzXzXzXzXzXzXzXzXzXzXzXzXzXzXzXzXzXzXzXzXzXzXzXzXzXzXzXzXzXzXzXzXzXzXzXzXzXzXzXzXzXzXzXzXzXzXzXzXzX",
"lXzXlXlXlXzXzXzXzXlXzXzXzXlXlXzXzXzXzXzXlXzXzXlXzXzXlXzXzXzXlXzXzXzXzXzXzXzXlXzXzXzXzXzXzXzXkXzXzXzXzXkXzXzXzXzXzXzXzXzXkXzXzXzX",
"lXlXlXlXlXlXzXzXlXlXzXlXlXlXlXlXlXlXlXzXlXlXzXzXlXlXlXlXlXlXlXlXlXlXlXlXjXjXzXkXzXM.) zXkXkXzXzXlXlXlXlXlXlXlXlXkXzXkXzXkXzXkXzX",
"lXgXlXlXlXlXlXgXlXlXlXgXlXlXgXlXzXgXgXzXgXlXgXlXgXlXlXlXlXlXlXlXlXlXlXlXjXgXkXkXb.q { zXkXkXkXkXlXlXlXlXlXlXlXzX:X{ kXzXkXkXkXkX",
"fXfXfXfXfXfXfXgXfXgXgXfXgXgXgXgXfXgXgXgXgXgXgXfXgXgXfXfXfXfXfXfXfXfXfXfXfXgXgX Xj j M.zXfXgXgXfXfXfXgXgXfXfXgX Xl { gXgXfXkXgXfX",
"aXaXaXaXaXaXaXaXaXaXfXaXfXaXaXfXaXaXfXaXfXaXfXaXaXfXfXaXaXaXfXaXfXaXaXfXaXfXfX^ h h } fXfXiXfXiXaXaXaXaXaXfXtXl h n.fXiXfXaXfXiX",
"iXiXiXiXiXiXaXaXuXuXaXiXiXuXiXiXaXiXiXiXpXiXiXiXiXiXiXaXiXiXiXiXiXiXiX4Xn.( x d d q q h x m / ) 7.|.>XiXaXuX6.d d OXiXuXiXiXiXiX",
"uXqXuXeXyX0X0XeXuXuXqXqX0XiXqXuXeX0XuXqXeXqXuX0XyXyXeX0XyXyXyX0XeX4X) d e e e 8 q q 0 8 0 0 0 8 0 q q m ] XXv e 0 0XuX0XqXiXqXuX",
"0X0XqX4X0X0X0XeX4XqX0X5X0X0X0X0X0X0X0X0XqX0X0X0X0X0XqX0X0X5X0X0Xz.d 8 8 0 8 8 8 0 8 8 8 8 8 8 8 8 8 8 8 8 8 8 8 0 0XqX0XqXqXqXqX",
"5X3X0X4X5X3X0X4X4X4X5X5X5X3X5X3X5X5X5X4X3X3X5X5X3X5X3X3X5X5X5X] 8 8 8 < 8 8 6 8 0 8 8 8 8 8 3 8 8 8 8 8 < 8 8 8 8 !.3X3XqX6X6X6X",
"3X3X5X<X<X3X<X3X5X=X5X5X3X=X;X5X<X5X<X<X0X<X5X=X;X<X5X5X=X5X<XG 3 8 2 8 3 8 3 8 3 8 8 3 4 4 4 8 < d J ,.z.'.N 8 3 ` <X0X5X5X3X3X",
"3X3X<X<X<X<X<X<X;X=X=X=X=X=X=X=X=X}.=X=X=X=X=X=X=X=X}.<X<X}.=X=X` y , 2 , , , , , , , 3 2 2 2 4 < !.3X3X<X<X{.n 3 y $X<X=X5X3X3X",
"}.5X5X5X}.3X=X<X=X=X=X=X=X=X=X=X}.=X=X=X=X=X=X=X=X=X=X=X}.=X=X=X+X=XH.~ H d 3 2 , , 8 d J ,.T.,.y ` }.}.<X=X=X=X5.N ~ =X}.3X}.3X",
"}.}.}.}.}.}.}.}.=XoX$X=X=X$XoX$X=X=X$X'.$XoX$X$XoX=XoX=X=X=XoX$X+X}.=X+X=X+X+Xd , 8 =X+X=X=X=X+X+XoX=X}.$X$X$X=X=X=X$X=X<X3X}.<X",
"+X=X=X+X}.+X+X+X+XoX!.  oX).oX).!.oX'.!.!.oX'.!.'.!.+X).'.}.!._.'.oX'.!.oX!.oXK - d oX'.).oX+XoXoX'.oXoX+X+X+X=X=X=X=X=X}.=X=X=X",
"=X=X+X+X}.+X}.'.oX!..   ).  !.).  !.!.!.T.oX!.!.!.!.!.!.!.!.!.Q.!.!.!.!.!.T.!.c.8 g !.!.!.!.!.!.!.!.!.'.oXoXoXoXoXoXoX+X}.}.$X=X",
"!.!.!.'.!.    !.T.T.T.      U.W.    I.I.I.I.T.T.P.P.I.U.I.I.P.P.I.I.U.!.I.I.I.I.3.g T.T.P.W.!.P.!.!.!.T.!.!.!.!.!.!.'.!.oXoXoX=X",
"!.!.!.U.!.U.    I.I.U.I.  U.G.S.I.    I.H.H.H.H.D.D.D.I.D.S.I.D.S.H.H.H.H.S.H.H.H.H.I.I.D.I.I.I.U.U.I.I.U.U.T.T.!.T.W.'.T.!.'.!.",
"T.U.I.I.U..     D.V.D..     S.Z.k.x.  N.  V.V.N.V.V.Z.N.N.V.V.V.S.V.V.V.S.S.S.c.V.V.V.V.V.V.D.N.Z.D.D.D.D.U.G.G.T.U.I.I.P.W.W.!.",
"U.H.S.S.Z.S.    S.k.N.k.    k.  k.k.  . k.  s.s.N.s.s.N.k.s.k.t.s.k.s.k.s.s.s.s.N.N.h.N.s.N.N.N.N.Z.S.Z.S.Z.D.Z.S.I.S.I.I.I.U.W.",
"S.N.V.k.s.k.k.    s.s.s.s.  . s.t.t.  t.t.    t.9.=.t.9.9.t.t.9.9.9.t.t.e.e.e.u.9.t.t.t.u.t.s.s.s.s.s.s.s.s.s.Z.k.x.N.V.S.S.I.D.",
"s.k.s.s.s.s.y.          3.  e.;.9.      9.3.  >.9.>.9.9.9.9.9.;.9.3.9.;.;.9.9.;.9.9.9.3.9.9.9.9.e.9.e.e.u.u.s.s.y.k.s.k.k.N.Z.S.",
"s.e.y.                          .             #.#.#.#.#.#.#.#.#.#.#.#.#.=.#.#.#.#.#.#.#.;.;.;.;.;.;.>.>.;.9.9.t.y.9.e.s.s.s.k.k.",
"9.9.                                            . . w ! ! ! ! ! ! ! ! | | | | | | | | #.| | | | | #.#.;.;.#.=.;.3.9.9.9.e.e.y.s.",
";.                                                  O U U Y U U U U Y Y U U Y ! Y Y ! Y ! Y Y ! ! Q Q Q | | | #.#.#.#.;.;.3.e.e.",
"                                                          Z Z A A A A A A Z A Z A A A S . .             . Y ! Q Q Q | #.#.$.;.;.",
"                                                              Z C C C C C C C C C                             S Y Y ! ! ! !  .#.",
"                                                                      B B B   .                                 A S P U P ! !  .",
"                                                                                                                .     Z A A A ! ",
"                                                                                                                        .     A ",
"                                                                                                                        .       ",
"                                                                                                                        .       ",
"                                                                                                                                ",
"                                                                                                                                ",
"                                                                                                                                ",
"                                                                                                                                ",
"                                                                                                                                ",
"                                                    #                                                       - -         - -     ",
"                                              #     #                                                 -       -           - -   ",
"                                              # #   #                                                 - -   - -             -   ",
"                                    # #   #     # # #                                                   - - -       - -     -   ",
"    # # # # #                       # # # #     # #                                                         -         - - - -   ",
"# # # # # # # # # # # # #             # #       #       #     #                                   - -       - -     . - - -     ",
"# # # # # # # # # # # # # # # # #     #     # # #       #     #                                       -       - -   . - .       ",
"# # # # # # # # # # # # # # # # # # # #     #           # # #                               .         - -       -   - -         ",
"# # # # # # # # # # # # # # # # # # # # #   #         # #                               - - - - - - - - - - - - - * - .         ",
"# # # # # # # # # # # # # # # # # # # # # # #   # # #   # # #                     - - - - - - - - - - - - - - - - - - * @ . .   ",
"# # # # # # # # # # # # # # # # # # # # # # # # #                               - - - - - - - - - - - - - - - - - - - - - & +   ",
"# # # # # # # # # # # # # # # # # # # # # # # # # #                       - - - - - - - - - - - - - - - - - - - - - - - - - - % ",
"# # # # # # # # # # # # # # # # # # # # # # # # # # # # #               - - - - - - - - - - - - - - - - - - - - - - - - - - - - ",
"# # # # # # # # # # # # # # # # # # # # # # # # # # # # # #       - - - - - - - - - sXsXsXsXsXsXsXsX- - - - - - - - - - - - - - ",
"# # # # # # # # # # # # # # # # # # # # # # # # # # # # - - - - - - - - - sXsXsXsXsXsXsXsXsXsXsXsXsXsXsX- - - - - - - - - - - - ",
"# # # # # # # # # # # # # # # # # # # # # # # # # # - - - - - - - - - - sXsXsXsXsXsXsXsXsXsXsXsXsXsX$ $ $ - - - - - - - - - - - ",
"# # # # # # # # sXsXsXsXsXsXsXsX# # # # # # # # # - - - - - - - - - - - sXsXsXsXsXsX$ sXsXsXsXsXsXsX$ $ $ $ - - - - - - - - - - ",
"# # # # # # # $ sXsXsXsXsXsXsXsXsXsX# # # # # - - - - - - - - - - - - - sXsXsXsXsX$ $ $ $ $ sXsXsXsXsXsXsXsXsX$ $ - - - - - - - ",
"# # # # # # $ $ $ $ sXsXsXsXsXsXsX$ $ # # # - - - - - - - - - - - - - sXsX$ $ $ $ $ $ $ $ $ sXsXsXsXsXsXsXsXsX$ $ $ - - - - - - ",
"# # sXsX$ $ $ $ $ $ sXsXsXsXsXsXsXsX$ $ $ $ - - - - - - - - - - - - sXsXsXsXsX$ $ $ $ $ sXsXsXsXsXsXsXsXsX$ $ $ $ $ - - - - - - ",
"# sXsXsXsXsXsXsXsXsXsXsXsX$ $ $ $ $ $ sX$ $ $ - - - - - - - - - - sXsXsXsXsXsXsXsXsX$ sXsXsXsXsXsXsXsXsX$ $ $ $ $ $ - - - - - - "
};
